<svg width="67" height="24" viewBox="0 0 67 24" fill="none" xmlns="http://www.w3.org/2000/svg">
<path d="M20.4718 5.00093L18 10.4551H19.6093L20.0654 9.36294H22.7168L23.1704 10.4551H24.8152L22.3457 5.00093H20.4718ZM21.3863 6.27025L22.1945 8.17883H20.5758L21.3863 6.27025ZM24.9853 10.4542V5L27.2721 5.00805L28.6023 8.5246L29.9005 5H32.1691V10.4542H30.7324V6.43532L29.2093 10.4542H27.9493L26.4221 6.43532V10.4542H24.9853ZM33.1522 10.4542V5H37.8405V6.22002H34.6041V7.15296H37.7649V8.30125H34.6041V9.2701H37.8405V10.4542H33.1522ZM38.6724 5.00093V10.4551H40.1091V8.51744H40.7141L42.4368 10.4551H44.1926L42.3021 8.44567C43.0779 8.38353 43.8783 7.75157 43.8783 6.77039C43.8783 5.62266 42.9291 5.00093 41.8697 5.00093H38.6724ZM40.1091 6.22095H41.7515C42.1455 6.22095 42.432 6.51341 42.432 6.79505C42.432 7.15738 42.0607 7.36919 41.7728 7.36919H40.1091V6.22095ZM45.9318 10.4542H44.4648V5H45.9318V10.4542ZM49.4103 10.4542H49.0937C47.5615 10.4542 46.6313 9.30861 46.6313 7.74952C46.6313 6.15188 47.5511 5 49.4859 5H51.0739V6.29178H49.4279C48.6424 6.29178 48.087 6.87351 48.087 7.76297C48.087 8.81926 48.7221 9.26289 49.6371 9.26289H50.0152L49.4103 10.4542ZM52.5367 5.00093L50.0649 10.4551H51.6742L52.1302 9.36294H54.7816L55.2353 10.4551H56.88L54.4106 5.00093H52.5367ZM53.4512 6.27025L54.2594 8.17883H52.6406L53.4512 6.27025ZM57.0478 10.4542V5H58.8745L61.2068 8.42683V5H62.6436V10.4542H60.876L58.4846 6.9377V10.4542H57.0478ZM28.4638 19.9991V14.5449H33.1522V15.7649H29.9157V16.6979H33.0765V17.8461H29.9157V18.815H33.1522V19.9991H28.4638ZM51.4369 19.9991V14.5449H56.1252V15.7649H52.8888V16.6979H56.0345V17.8461H52.8887V18.815H56.1252V19.9991H51.4369ZM33.3341 19.9991L35.6169 17.3056L33.2798 14.5449H35.0899L36.4818 16.2515L37.8784 14.5449H39.6177L37.3113 17.272L39.5982 19.9991H37.7884L36.4369 18.3193L35.1183 19.9991H33.3341ZM39.7689 14.5458V20H41.2434V18.2777H42.7558C44.0355 18.2777 45.0055 17.6333 45.0055 16.3803C45.0055 15.3423 44.2447 14.5458 42.9425 14.5458H39.7689ZM41.2434 15.7793H42.8361C43.2496 15.7793 43.5451 16.0198 43.5451 16.4072C43.5451 16.7712 43.251 17.0352 42.8314 17.0352H41.2434V15.7793ZM45.6293 14.5449V19.9991H47.0661V18.0614H47.6711L49.3937 19.9991H51.1495L49.2591 17.9897C50.0349 17.9275 50.8352 17.2955 50.8352 16.3143C50.8352 15.1666 49.886 14.5449 48.8266 14.5449H45.6293ZM47.0661 15.7649H48.7084C49.1024 15.7649 49.389 16.0573 49.389 16.339C49.389 16.7014 49.0177 16.9131 48.7297 16.9131H47.0661V15.7649ZM56.7907 19.9991V18.815H59.6661C60.0916 18.815 60.2758 18.5967 60.2758 18.3574C60.2758 18.1281 60.0922 17.8963 59.6661 17.8963H58.3667C57.2373 17.8963 56.6083 17.2433 56.6083 16.2628C56.6083 15.3882 57.1843 14.5449 58.8627 14.5449H61.6606L61.0556 15.7721H58.6358C58.1732 15.7721 58.0309 16.0024 58.0309 16.2224C58.0309 16.4485 58.2068 16.6979 58.5602 16.6979H59.9213C61.1804 16.6979 61.7267 17.3756 61.7267 18.2632C61.7267 19.2175 61.1179 19.9991 59.8528 19.9991H56.7907ZM62.064 19.9991V18.815H64.9393C65.3648 18.815 65.549 18.5967 65.549 18.3574C65.549 18.1281 65.3654 17.8963 64.9393 17.8963H63.64C62.5105 17.8963 61.8815 17.2433 61.8815 16.2628C61.8815 15.3882 62.4576 14.5449 64.1359 14.5449H66.9338L66.3289 15.7721H63.9091C63.4465 15.7721 63.3041 16.0024 63.3041 16.2224C63.3041 16.4485 63.48 16.6979 63.8334 16.6979H65.1946C66.4536 16.6979 67 17.3756 67 18.2632C67 19.2175 66.3912 19.9991 65.1261 19.9991H62.064Z" fill="#016FD0"/>
</svg>
