<svg width="50" height="12" viewBox="0 0 50 12" fill="none" xmlns="http://www.w3.org/2000/svg">
<path d="M2.26074 0.477539H0V10.8338H2.26074C3.45215 10.8338 4.3291 10.457 5.08301 9.63314C5.9873 8.64707 6.52148 7.17819 6.52148 5.65566C6.50684 2.60933 4.76758 0.477539 2.26074 0.477539ZM4.06836 8.25367C3.58887 8.82717 2.95898 9.07752 1.95898 9.07752H1.54785V2.23381H1.95898C2.95898 2.23381 3.56152 2.46628 4.06836 3.07554C4.60254 3.70269 4.91797 4.65172 4.91797 5.65566C4.91797 6.64045 4.60254 7.62652 4.06836 8.25367Z" fill="#231F20"/>
<path d="M8.7666 0.477539H7.21875V10.8338H8.7666V0.477539Z" fill="#231F20"/>
<path d="M12.5342 4.45512C11.6025 4.00679 11.3428 3.7028 11.3428 3.14718C11.3428 2.50215 11.8223 2.00017 12.4932 2.00017C12.959 2.00017 13.3291 2.25052 13.7393 2.8419L14.5479 1.46243C13.8906 0.710111 13.0957 0.31543 12.2188 0.31543C10.8213 0.31543 9.75293 1.58761 9.75293 3.27235C9.75293 4.70547 10.2461 5.42203 11.6982 6.10282C12.3008 6.38893 12.6162 6.56903 12.7666 6.6942C13.082 6.96243 13.2324 7.33923 13.2324 7.76968C13.2324 8.61141 12.7256 9.22068 12.041 9.22068C11.3018 9.22068 10.7119 8.73658 10.3564 7.84121L9.35645 9.0955C10.0684 10.4571 10.918 11.0664 12.0957 11.0664C13.6982 11.0664 14.8213 9.66901 14.8213 7.66239C14.8223 6.03257 14.3018 5.29685 12.5342 4.45512Z" fill="#231F20"/>
<path d="M15.3018 5.65552C15.3018 8.70185 17.124 11.0482 19.4795 11.0482C20.1367 11.0482 20.7119 10.8694 21.4111 10.439V8.05555C20.7949 8.86152 20.2471 9.18467 19.5479 9.18467C18 9.18467 16.8906 7.71579 16.8906 5.61976C16.8906 3.63102 18.0273 2.07273 19.4795 2.07273C20.2188 2.07273 20.7676 2.41377 21.4111 3.23762V0.854199C20.7402 0.405871 20.1787 0.227051 19.5068 0.227051C17.1777 0.244933 15.3018 2.64496 15.3018 5.65552Z" fill="#231F20"/>
<path d="M33.6436 7.42981L31.5342 0.477539H29.8496L33.2188 11.102H34.041L37.4658 0.477539H35.7949L33.6436 7.42981Z" fill="#231F20"/>
<path d="M38.1641 10.8338H42.5342V9.07752H39.6982V6.28281H42.4248V4.52654H39.6982V2.23381H42.5342V0.477539H38.1641V10.8338Z" fill="#231F20"/>
<path d="M48.6436 3.54175C48.6436 1.60666 47.6299 0.477539 45.8486 0.477539H43.5605V10.8338H45.1084V6.67749H45.3135L47.4502 10.8338H49.3545L46.8613 6.47952C48 6.15764 48.6436 5.11793 48.6436 3.54175ZM45.5479 5.2431H45.0957V2.10736H45.5752C46.5342 2.10736 47.0547 2.62722 47.0547 3.64777C47.0547 4.68748 46.5342 5.2431 45.5479 5.2431Z" fill="#231F20"/>
<path d="M26.123 11.1914C28.4454 11.1914 30.3281 8.72897 30.3281 5.69141C30.3281 2.65384 28.4454 0.191406 26.123 0.191406C23.8006 0.191406 21.918 2.65384 21.918 5.69141C21.918 8.72897 23.8006 11.1914 26.123 11.1914Z" fill="url(#paint0_linear_3503_645)"/>
<path opacity="0.65" d="M26.123 11.1914C28.4454 11.1914 30.3281 8.72897 30.3281 5.69141C30.3281 2.65384 28.4454 0.191406 26.123 0.191406C23.8006 0.191406 21.918 2.65384 21.918 5.69141C21.918 8.72897 23.8006 11.1914 26.123 11.1914Z" fill="url(#paint1_linear_3503_645)"/>
<path d="M49.6299 0.872051C49.6299 0.69323 49.5342 0.585938 49.3691 0.585938H49.1504V1.4992H49.3145V1.14028L49.5059 1.4992H49.7109L49.4785 1.1224C49.5752 1.08663 49.6299 0.997225 49.6299 0.872051ZM49.3428 0.997224H49.3154V0.764757H49.3428C49.4248 0.764757 49.4658 0.800522 49.4658 0.889933C49.4658 0.961461 49.4248 0.997224 49.3428 0.997224Z" fill="#231F20"/>
<path d="M49.3975 0.244873C49.0547 0.244873 48.7949 0.603791 48.7949 1.03296C48.7949 1.48129 49.0693 1.82105 49.3975 1.82105C49.7266 1.82105 50 1.46213 50 1.03296C50 0.603791 49.7256 0.244873 49.3975 0.244873ZM49.3975 1.69587C49.1367 1.69587 48.918 1.40976 48.918 1.05084C48.918 0.691923 49.1367 0.405811 49.3975 0.405811C49.6582 0.405811 49.877 0.709805 49.877 1.05084C49.877 1.40848 49.6572 1.69587 49.3975 1.69587Z" fill="#231F20"/>
<defs>
<linearGradient id="paint0_linear_3503_645" x1="28.2785" y1="10.1049" x2="24.1443" y2="5.15597" gradientUnits="userSpaceOnUse">
<stop stop-color="#F89F20"/>
<stop offset="0.2502" stop-color="#F79A20"/>
<stop offset="0.5331" stop-color="#F68D20"/>
<stop offset="0.6196" stop-color="#F58720"/>
<stop offset="0.7232" stop-color="#F48120"/>
<stop offset="1" stop-color="#F37521"/>
</linearGradient>
<linearGradient id="paint1_linear_3503_645" x1="27.8179" y1="10.0235" x2="21.4676" y2="0.533919" gradientUnits="userSpaceOnUse">
<stop stop-color="#F58720"/>
<stop offset="0.3587" stop-color="#E16F27"/>
<stop offset="0.703" stop-color="#D4602C"/>
<stop offset="0.9816" stop-color="#D05B2E"/>
</linearGradient>
</defs>
</svg>
