<svg width="60" height="16" viewBox="0 0 60 16" fill="none" xmlns="http://www.w3.org/2000/svg">
<path d="M11.5758 15.1914C15.8508 15.2071 19.7648 11.8437 19.7648 7.75439C19.7648 3.28592 15.852 0.191406 11.5758 0.191406H7.89258C3.56836 0.191406 0 3.28592 0 7.75439C0 11.8437 3.56836 15.2071 7.89258 15.1914H11.5758Z" fill="#006095"/>
<path d="M9.53677 11.7488V3.61758C11.2465 4.24886 12.4477 5.82763 12.4477 7.67533C12.4477 9.53879 11.2465 11.1176 9.53677 11.7488ZM3.37036 7.67533C3.37036 5.82763 4.58677 4.23311 6.2813 3.61758V11.7488C4.58794 11.1176 3.37036 9.53879 3.37036 7.67533ZM7.90903 0.806641C3.94575 0.806641 0.739502 3.8854 0.739502 7.67533C0.739502 11.4653 3.94575 14.544 7.90903 14.544C11.8723 14.544 15.0786 11.4653 15.0786 7.67533C15.0786 3.8854 11.8723 0.806641 7.90903 0.806641Z" fill="white"/>
<path d="M22.2796 3.41294C22.2796 2.70289 21.8847 2.75016 21.5237 2.75016V2.54536C21.853 2.56111 22.1812 2.56111 22.494 2.56111C22.8397 2.56111 23.3167 2.54536 23.9249 2.54536C26.0624 2.54536 27.2132 3.90357 27.2132 5.30791C27.2132 6.0821 26.7362 8.05471 23.8265 8.05471C23.3987 8.05471 23.0202 8.03896 22.6265 8.03896C22.2479 8.03896 21.887 8.03896 21.5249 8.05471V7.84991C22.0183 7.80265 22.2644 7.7869 22.2808 7.25014L22.2796 3.41294ZM23.0858 7.12298C23.0858 7.72276 23.5464 7.80153 23.9413 7.80153C25.7167 7.80153 26.3085 6.52209 26.3085 5.33829C26.3085 3.86981 25.3218 2.79629 23.7269 2.79629C23.3812 2.79629 23.2335 2.81205 23.0858 2.8278V7.12298ZM27.4921 7.84879H27.6562C27.8858 7.84879 28.0511 7.84879 28.0511 7.57985V5.44857C28.0511 5.10086 27.9198 5.0536 27.6233 4.89606V4.77003C28.0183 4.65975 28.4788 4.51684 28.5116 4.48533C28.5772 4.45383 28.6265 4.43807 28.6593 4.43807C28.6921 4.43807 28.7249 4.48533 28.7249 4.54835V7.57985C28.7249 7.84879 28.9054 7.84879 29.1362 7.84879H29.2675V8.05359C28.9874 8.05359 28.6921 8.03783 28.3956 8.03783C28.0991 8.03783 27.8038 8.03783 27.4909 8.05359L27.4921 7.84879ZM28.3804 3.22277C28.1671 3.22277 27.969 3.03373 27.969 2.8278C27.969 2.62187 28.1659 2.44858 28.3804 2.44858C28.5948 2.44858 28.7917 2.62187 28.7917 2.8278C28.7753 3.04948 28.5937 3.22277 28.3804 3.22277ZM30.0409 5.49696C30.0409 5.21226 29.9425 5.13349 29.564 4.97595V4.83417C29.9261 4.72389 30.2542 4.61362 30.6491 4.45495C30.6655 4.45495 30.6983 4.47071 30.6983 4.53372V5.05473C31.1753 4.73852 31.5702 4.47071 32.1292 4.47071C32.8358 4.47071 33.0831 4.9602 33.0831 5.57573V7.61248C33.0831 7.88142 33.2636 7.88142 33.4944 7.88142H33.6421V8.08622C33.3456 8.08622 33.0667 8.07047 32.7702 8.07047C32.4737 8.07047 32.1784 8.07047 31.8819 8.08622V7.84991H32.0296C32.2593 7.84991 32.4245 7.84991 32.4245 7.58097V5.54422C32.4245 5.08623 32.1444 4.88143 31.6687 4.88143C31.4062 4.88143 30.9784 5.08623 30.7147 5.26065V7.59785C30.7147 7.86679 30.8952 7.86679 31.1261 7.86679H31.2737V8.07159C30.9772 8.07159 30.6983 8.05584 30.4019 8.05584C30.1054 8.05584 29.8101 8.05584 29.5136 8.07159V7.85104H29.6612C29.8909 7.85104 30.0562 7.85104 30.0562 7.5821V5.49696H30.0409ZM34.2667 5.87505C34.2503 5.95382 34.2503 6.0641 34.2667 6.33304C34.3159 7.0746 34.8257 7.69125 35.4831 7.69125C35.9437 7.69125 36.2894 7.45494 36.6011 7.17025L36.7159 7.28052C36.3374 7.75427 35.8604 8.16499 35.1866 8.16499C33.8718 8.16499 33.6081 6.94969 33.6081 6.44444C33.6081 4.89719 34.6933 4.4392 35.2687 4.4392C35.9425 4.4392 36.6503 4.83417 36.6667 5.67025C36.6667 5.71751 36.6667 5.76477 36.6667 5.81204L36.5847 5.8593H34.2667V5.87505ZM35.714 5.62299C35.9272 5.62299 35.9437 5.51271 35.9437 5.41819C35.9437 5.02322 35.6812 4.69239 35.2206 4.69239C34.7108 4.69239 34.3651 5.0401 34.2667 5.60836H35.714V5.62299ZM36.8483 7.84879H37.078C37.3077 7.84879 37.473 7.84879 37.473 7.57985V5.3698C37.473 5.13349 37.1601 5.06935 37.0452 5.02209V4.91181C37.6534 4.65863 37.9827 4.45383 38.0483 4.45383C38.0976 4.45383 38.114 4.46958 38.114 4.5641V5.27415H38.1304C38.3272 4.9737 38.6894 4.46845 39.1827 4.46845C39.396 4.46845 39.6597 4.59449 39.6597 4.87918C39.6597 5.09973 39.512 5.28991 39.2647 5.28991C39.0022 5.28991 39.0022 5.10086 38.7222 5.10086C38.5745 5.10086 38.114 5.28991 38.114 5.76365V7.61135C38.114 7.88029 38.278 7.88029 38.5089 7.88029H38.9694V8.0851C38.5089 8.06934 38.1632 8.06934 37.8187 8.06934C37.4741 8.06934 37.1284 8.06934 36.8319 8.0851V7.84879H36.8483ZM40.0218 6.94969C40.1366 7.4707 40.4659 7.91293 41.0577 7.91293C41.5347 7.91293 41.7315 7.62823 41.7315 7.36042C41.7315 6.42869 39.9397 6.72914 39.9397 5.46545C39.9397 5.02322 40.3183 4.45495 41.2218 4.45495C41.4854 4.45495 41.8464 4.53372 42.1593 4.69126L42.2249 5.49696H42.0116C41.9296 5.00746 41.6331 4.72277 41.1069 4.72277C40.7776 4.72277 40.4659 4.89606 40.4659 5.24377C40.4659 6.1755 42.3737 5.87505 42.3737 7.12298C42.3737 7.64399 41.9296 8.1965 40.9593 8.1965C40.63 8.1965 40.2362 8.08622 39.9562 7.92756L39.8577 7.02734L40.0218 6.94969ZM49.8222 3.96546H49.6253C49.4612 3.04948 48.7862 2.67026 47.8663 2.67026C46.9124 2.67026 45.5483 3.27003 45.5483 5.165C45.5483 6.75952 46.7319 7.89605 47.9987 7.89605C48.8214 7.89605 49.4952 7.35929 49.6593 6.53784L49.8397 6.5851L49.6593 7.73739C49.3136 7.94219 48.3773 8.16387 47.8347 8.16387C45.9105 8.16387 44.694 6.98007 44.694 5.19538C44.694 3.58511 46.2069 2.41707 47.8183 2.41707C48.4921 2.41707 49.1331 2.62187 49.7589 2.84355L49.8222 3.96546ZM50.1175 7.84879H50.2651C50.4948 7.84879 50.6601 7.84879 50.6601 7.57985V3.19014C50.6601 2.66914 50.5288 2.65338 50.2159 2.57461V2.44858C50.5452 2.35406 50.8897 2.21227 51.0714 2.10087C51.1534 2.05361 51.2355 2.00635 51.2519 2.00635C51.3011 2.00635 51.3175 2.05361 51.3175 2.11663V7.56409C51.3175 7.83303 51.498 7.83303 51.7288 7.83303H51.8601V8.03783C51.58 8.03783 51.2847 8.02208 50.9882 8.02208C50.6917 8.02208 50.3964 8.02208 50.0835 8.03783V7.84879H50.1175ZM55.3956 7.61248C55.3956 7.75426 55.4776 7.77002 55.6253 7.77002C55.7237 7.77002 55.855 7.77002 55.9546 7.77002V7.94331C55.5925 7.97482 54.9187 8.13236 54.771 8.17962L54.7218 8.14811V7.51683C54.2284 7.89605 53.8499 8.17962 53.2581 8.17962C52.814 8.17962 52.3534 7.91068 52.3534 7.24789V5.22689C52.3534 5.02209 52.3206 4.81617 51.8601 4.78466V4.62712C52.1565 4.62712 52.814 4.57986 52.9288 4.57986C53.0272 4.57986 53.0273 4.62712 53.0273 4.80041V6.83716C53.0273 7.07347 53.0272 7.75314 53.7503 7.75314C54.0304 7.75314 54.4077 7.54834 54.7534 7.2794V5.14812C54.7534 4.99058 54.3585 4.91181 54.0632 4.83192V4.69013C54.8026 4.64287 55.2632 4.57986 55.3452 4.57986C55.4108 4.57986 55.4108 4.62712 55.4108 4.72164V7.61135H55.3956V7.61248ZM57.0398 5.00746C57.369 4.73852 57.812 4.4392 58.2726 4.4392C59.2265 4.4392 59.8019 5.2449 59.8019 6.09673C59.8019 7.12298 59.0132 8.16499 57.8284 8.16499C57.2202 8.16499 56.8909 7.97594 56.6776 7.89605L56.4315 8.06934L56.2675 7.99057C56.3331 7.53259 56.3823 7.0746 56.3823 6.5851V3.19014C56.3823 2.66914 56.2511 2.65338 55.9382 2.57461V2.44858C56.2675 2.35406 56.612 2.21227 56.7937 2.10087C56.8921 2.05361 56.9413 2.00635 56.9741 2.00635C57.0233 2.00635 57.0398 2.05361 57.0398 2.11663V5.00746V5.00746ZM57.0398 7.15449C57.0398 7.45494 57.3362 7.96019 57.8952 7.96019C58.7835 7.96019 59.1444 7.12298 59.1444 6.42869C59.1444 5.57573 58.4706 4.86568 57.8284 4.86568C57.5155 4.86568 57.2694 5.05472 57.0398 5.2449V7.15449ZM21.5073 12.6335H21.5729C21.737 12.6335 21.9022 12.6177 21.9022 12.3972V10.1556C21.9022 9.93505 21.7382 9.90242 21.5729 9.90242H21.5073V9.77639C21.6878 9.77639 21.9515 9.79214 22.1647 9.79214C22.3944 9.79214 22.6581 9.77639 22.8714 9.77639V9.90242H22.8058C22.6417 9.90242 22.4765 9.91817 22.4765 10.1556V12.3972C22.4765 12.6177 22.6405 12.6335 22.8058 12.6335H22.8714V12.7595C22.6581 12.7595 22.3944 12.7437 22.1647 12.7437C21.9515 12.7437 21.6878 12.7595 21.5073 12.7595V12.6335ZM25.9628 11.9223L25.9792 10.2963C25.9792 9.94855 25.7155 9.88554 25.5843 9.88554H25.4858V9.75951C25.6991 9.75951 25.8972 9.77526 26.1104 9.77526C26.2909 9.77526 26.4726 9.75951 26.6694 9.75951V9.88554H26.6038C26.4233 9.88554 26.2089 9.91705 26.2089 10.4381V12.396C26.2089 12.5536 26.2089 12.6965 26.2417 12.8225H26.0776L23.7761 10.3593V12.1282C23.7761 12.5074 23.8581 12.6335 24.2038 12.6335H24.2858V12.7595C24.089 12.7595 23.9073 12.7437 23.7104 12.7437C23.5136 12.7437 23.2991 12.7595 23.1022 12.7595V12.6335H23.1679C23.4808 12.6335 23.5792 12.4287 23.5792 12.0967V10.2805C23.5792 10.0442 23.3659 9.9013 23.1679 9.9013H23.1022V9.77526C23.2663 9.77526 23.448 9.79102 23.612 9.79102C23.7433 9.79102 23.8757 9.77526 24.0069 9.77526L25.9628 11.9223ZM27.328 9.98119C26.9987 9.98119 26.9823 10.06 26.9167 10.3762H26.7855C26.8019 10.2501 26.8183 10.1399 26.8347 10.0127C26.8511 9.88667 26.8675 9.77639 26.8675 9.64923H26.9823C27.0151 9.77526 27.13 9.77526 27.2448 9.77526H29.5628C29.6776 9.77526 29.7925 9.77526 29.8089 9.64923L29.9237 9.66499C29.9073 9.77526 29.8909 9.90129 29.8745 10.0127C29.8581 10.1241 29.8581 10.249 29.8581 10.3604L29.7269 10.4077C29.7104 10.2501 29.694 9.99694 29.3976 9.99694H28.6581V12.27C28.6581 12.602 28.8222 12.6335 29.0366 12.6335H29.1187V12.7595C28.9382 12.7595 28.6253 12.7437 28.3956 12.7437C28.1331 12.7437 27.8202 12.7595 27.6397 12.7595V12.6335H27.7218C27.9679 12.6335 28.1003 12.6177 28.1003 12.27V9.98006H27.328V9.98119ZM30.0409 12.6335H30.1065C30.2706 12.6335 30.4358 12.6177 30.4358 12.3972V10.1556C30.4358 9.93505 30.2718 9.90242 30.1065 9.90242H30.0409V9.77639C30.321 9.77639 30.7804 9.79214 31.1589 9.79214C31.5374 9.79214 31.998 9.77639 32.3097 9.77639C32.3097 9.96543 32.3097 10.2501 32.3261 10.4392L32.1948 10.4707C32.1784 10.186 32.1128 9.96543 31.6522 9.96543H31.0276V11.0862H31.5538C31.8175 11.0862 31.8831 10.9444 31.9159 10.707H32.0472C32.0308 10.8803 32.0308 11.0389 32.0308 11.2122C32.0308 11.3698 32.0308 11.5442 32.0472 11.7017L31.9159 11.7332C31.8831 11.4812 31.8831 11.3068 31.5702 11.3068H31.0276V12.3015C31.0276 12.5862 31.2901 12.5862 31.5702 12.5862C32.1128 12.5862 32.3425 12.5547 32.4749 12.0652L32.6062 12.0967C32.5405 12.3173 32.4913 12.5547 32.4585 12.7753C32.1784 12.7753 31.6522 12.7595 31.2585 12.7595C30.8472 12.7595 30.321 12.7753 30.0585 12.7753V12.6335H30.0409V12.6335ZM33.1979 10.2175C33.1979 9.90129 33.0175 9.88554 32.8851 9.88554H32.803V9.75951C32.9507 9.75951 33.2308 9.77526 33.4933 9.77526C33.7558 9.77526 33.9702 9.75951 34.2163 9.75951C34.7753 9.75951 35.2851 9.90129 35.2851 10.5168C35.2851 10.896 35.0226 11.1323 34.6605 11.2741L35.4327 12.3792C35.564 12.5682 35.646 12.6155 35.8604 12.6312V12.7572C35.7128 12.7572 35.564 12.7415 35.4163 12.7415C35.2851 12.7415 35.1362 12.7572 34.9886 12.7572C34.6429 12.3308 34.3476 11.857 34.0511 11.3675H33.7546V12.2835C33.7546 12.6155 33.9187 12.6312 34.1167 12.6312H34.1987V12.7572C33.9362 12.7572 33.689 12.7415 33.4265 12.7415C33.2132 12.7415 32.9987 12.7572 32.769 12.7572V12.6312H32.8511C33.0151 12.6312 33.164 12.5524 33.164 12.3949V10.2164H33.1979V10.2175ZM33.7569 11.228H33.9702C34.4144 11.228 34.6605 11.0705 34.6605 10.5652C34.6605 10.186 34.3979 9.93393 34.003 9.93393C33.8718 9.93393 33.8062 9.94968 33.7569 9.94968V11.228V11.228ZM38.8874 11.9223V10.2963C38.8874 9.94855 38.6249 9.88554 38.4925 9.88554H38.394V9.75951C38.6073 9.75951 38.8054 9.77526 39.0187 9.77526C39.1991 9.77526 39.3808 9.75951 39.5776 9.75951V9.88554H39.512C39.3315 9.88554 39.1171 9.91705 39.1171 10.4381V12.396C39.1171 12.5536 39.1171 12.6965 39.1499 12.8225H38.9858L36.6843 10.3593V12.1282C36.6843 12.5074 36.7663 12.6335 37.112 12.6335H37.194V12.7595C36.9972 12.7595 36.8155 12.7437 36.6187 12.7437C36.4218 12.7437 36.2073 12.7595 36.0104 12.7595V12.6335H36.0761C36.389 12.6335 36.4874 12.4287 36.4874 12.0967V10.2805C36.4874 10.0442 36.2741 9.9013 36.0761 9.9013H36.0104V9.77526C36.1745 9.77526 36.3562 9.79102 36.5202 9.79102C36.6515 9.79102 36.7827 9.77526 36.9151 9.77526L38.8874 11.9223ZM40.3183 12.1597C40.269 12.3015 40.2198 12.4129 40.2198 12.4917C40.2198 12.6177 40.4003 12.6335 40.5491 12.6335H40.5983V12.7595C40.4179 12.7437 40.2362 12.7437 40.0558 12.7437C39.8917 12.7437 39.7265 12.7437 39.5788 12.7595V12.6335H39.6116C39.7921 12.6335 39.9409 12.5389 40.0065 12.3488L40.7296 10.375C40.7952 10.2175 40.8608 9.99582 40.8937 9.83828C41.0413 9.79101 41.223 9.71225 41.305 9.64923C41.3214 9.64923 41.3214 9.63348 41.3378 9.63348C41.3542 9.63348 41.3542 9.63348 41.3706 9.64923C41.387 9.68074 41.4034 9.728 41.4034 9.75951L42.2261 12.0011C42.2753 12.1586 42.3409 12.3173 42.3901 12.4433C42.4394 12.5693 42.5378 12.6166 42.6866 12.6166H42.7194V12.7426C42.5226 12.7269 42.3081 12.7269 42.0948 12.7269C41.8815 12.7269 41.6507 12.7269 41.421 12.7426V12.6166H41.4702C41.5687 12.6166 41.7503 12.6008 41.7503 12.4906C41.7503 12.4275 41.7175 12.3173 41.6519 12.1744L41.4714 11.6691H40.4519L40.3183 12.1597ZM40.9757 10.249L40.5479 11.4643H41.387L40.9757 10.249ZM42.8999 9.98119C42.5706 9.98119 42.5542 10.06 42.4886 10.3762H42.3409C42.3573 10.2501 42.3737 10.1399 42.3901 10.0127C42.4065 9.88667 42.423 9.77639 42.423 9.64923H42.5378C42.5706 9.77526 42.6855 9.77526 42.8003 9.77526H45.1183C45.2331 9.77526 45.348 9.77526 45.3644 9.64923L45.4792 9.66499C45.4628 9.77526 45.4464 9.90129 45.43 10.0127C45.4136 10.123 45.4136 10.249 45.4136 10.3604L45.2823 10.4077C45.2659 10.2501 45.2495 9.99694 44.953 9.99694H44.2136V12.27C44.2136 12.602 44.3776 12.6335 44.5921 12.6335H44.6741V12.7595C44.4937 12.7595 44.1808 12.7437 43.9511 12.7437C43.6886 12.7437 43.3757 12.7595 43.1952 12.7595V12.6335H43.2772C43.5233 12.6335 43.6558 12.6177 43.6558 12.27V9.98006H42.8999V9.98119ZM45.6292 12.6335H45.6948C45.8589 12.6335 46.0241 12.6177 46.0241 12.3972V10.1556C46.0241 9.93505 45.8601 9.90242 45.6948 9.90242H45.6292V9.77639C45.8097 9.77639 46.0733 9.79214 46.2866 9.79214C46.5163 9.79214 46.78 9.77639 46.9933 9.77639V9.90242H46.9276C46.7636 9.90242 46.5983 9.91817 46.5983 10.1556V12.3972C46.5983 12.6177 46.7624 12.6335 46.9276 12.6335H46.9933V12.7595C46.78 12.7595 46.5163 12.7437 46.2866 12.7437C46.0733 12.7437 45.8097 12.7595 45.6292 12.7595V12.6335ZM48.7862 9.71225C49.7401 9.71225 50.496 10.2805 50.496 11.1965C50.496 12.1912 49.7565 12.8383 48.8026 12.8383C47.8487 12.8383 47.1257 12.2227 47.1257 11.291C47.1257 10.3908 47.8487 9.71225 48.7862 9.71225ZM48.8519 12.6492C49.7237 12.6492 49.8714 11.9077 49.8714 11.291C49.8714 10.6597 49.5257 9.9013 48.7698 9.9013C47.9812 9.9013 47.7503 10.5641 47.7503 11.1481C47.7667 11.9065 48.1276 12.6492 48.8519 12.6492ZM53.5218 11.9223L53.5382 10.2963C53.5382 9.94855 53.2757 9.88554 53.1433 9.88554H53.0448V9.75951C53.2581 9.75951 53.4562 9.77526 53.6694 9.77526C53.8499 9.77526 54.0315 9.75951 54.2284 9.75951V9.88554H54.1628C53.9823 9.88554 53.7679 9.91705 53.7679 10.4381V12.396C53.7679 12.5536 53.7679 12.6965 53.8007 12.8225H53.6366L51.3351 10.3593V12.1282C51.3351 12.5074 51.4171 12.6335 51.7628 12.6335H51.8448V12.7595C51.648 12.7595 51.4663 12.7437 51.2694 12.7437C51.0726 12.7437 50.8581 12.7595 50.6612 12.7595V12.6335H50.7269C51.0397 12.6335 51.1218 12.4287 51.1218 12.0967V10.2805C51.1218 10.0442 50.9249 9.9013 50.7105 9.9013H50.6448V9.77526C50.8089 9.77526 50.9905 9.79102 51.1546 9.79102C51.2858 9.79102 51.4171 9.77526 51.5495 9.77526L53.5218 11.9223ZM54.9351 12.1597C54.8858 12.3015 54.8366 12.4129 54.8366 12.4917C54.8366 12.6177 55.0171 12.6335 55.1659 12.6335H55.2151V12.7595C55.0347 12.7437 54.853 12.7437 54.6726 12.7437C54.5085 12.7437 54.3433 12.7437 54.1956 12.7595V12.6335H54.2284C54.4089 12.6335 54.5577 12.5389 54.6233 12.3488L55.3464 10.375C55.412 10.2175 55.4776 9.99582 55.5105 9.83828C55.6581 9.79101 55.8397 9.71225 55.9218 9.64923C55.9382 9.64923 55.9382 9.63348 55.9546 9.63348C55.971 9.63348 55.971 9.63348 55.9874 9.64923C56.0038 9.68074 56.0202 9.728 56.0202 9.75951L56.8429 12.0011C56.8921 12.1586 56.9577 12.3173 57.0069 12.4433C57.0562 12.5693 57.1546 12.6166 57.3034 12.6166H57.3362V12.7426C57.1394 12.7269 56.9249 12.7269 56.7116 12.7269C56.4983 12.7269 56.2675 12.7269 56.0378 12.7426V12.6166H56.087C56.1855 12.6166 56.3671 12.6008 56.3671 12.4906C56.3671 12.4275 56.3343 12.3173 56.2687 12.1744L56.0882 11.6691H55.0687L54.9351 12.1597ZM55.5937 10.249L55.1659 11.4643H56.005L55.5937 10.249ZM58.4542 12.3488C58.4542 12.5221 58.5855 12.5693 58.7179 12.5851C58.8983 12.6008 59.0964 12.6008 59.3097 12.5693C59.4901 12.5536 59.6554 12.4433 59.7374 12.333C59.803 12.2385 59.8522 12.1125 59.8687 12.0168H59.9999C59.9507 12.2531 59.8851 12.5063 59.8358 12.7426C59.4409 12.7426 59.0472 12.7269 58.6523 12.7269C58.2573 12.7269 57.8636 12.7426 57.4687 12.7426V12.6166H57.5343C57.6983 12.6166 57.88 12.6008 57.88 12.3319V10.1218C57.88 9.90129 57.6995 9.86978 57.5343 9.86978H57.4687V9.74375C57.6983 9.74375 57.9456 9.75951 58.1753 9.75951C58.405 9.75951 58.6358 9.74375 58.8491 9.74375V9.86978H58.7343C58.5702 9.86978 58.4378 9.86978 58.4378 10.1061V12.3476H58.4542V12.3488Z" fill="#1A1918"/>
</svg>
