<svg width="50" height="24" viewBox="0 0 50 24" fill="none" xmlns="http://www.w3.org/2000/svg">
<path d="M36.1033 14.2761H39.2957C39.3911 14.2761 39.5963 14.2591 39.6916 14.2591C40.3054 14.1824 40.8239 13.841 40.8239 13.3627C40.8239 12.902 40.3054 12.56 39.6916 12.4663C39.5963 12.4492 39.4183 12.4492 39.2957 12.4492H36.1033V14.2761Z" fill="url(#paint0_linear_3504_674)"/>
<path d="M38.9416 1.65051C35.8989 1.65051 33.4019 3.19563 33.4019 5.11622V8.71885H41.2206C41.3977 8.71885 41.6165 8.71885 41.7663 8.73589C43.5269 8.79552 44.8362 9.36756 44.8362 10.3577C44.8362 11.1342 43.9491 11.8091 42.312 11.9369V11.9709C44.1135 12.0476 45.4772 12.6793 45.4772 13.6439C45.4772 14.6936 43.9491 15.377 41.9434 15.377H33.3611V22.4198H41.493C44.5357 22.4198 47.0326 20.8747 47.0326 18.9541V1.65051H38.9416Z" fill="url(#paint1_linear_3504_674)"/>
<path d="M40.4289 10.5793C40.4289 10.1186 39.9105 9.81984 39.2967 9.75959C39.2422 9.75959 39.0788 9.74255 38.9961 9.74255H36.1033V11.4155H38.9961C39.0915 11.4155 39.2695 11.4155 39.2967 11.3984C39.9105 11.3479 40.4289 11.0406 40.4289 10.5793Z" fill="url(#paint2_linear_3504_674)"/>
<path d="M8.30997 1.65051C5.26731 1.65051 2.77035 3.19563 2.77035 5.11622V13.6694C4.32572 14.1477 5.93557 14.4459 7.54639 14.4459C9.47042 14.4459 10.4937 13.7205 10.4937 12.7298V8.70059H15.2425V12.7128C15.2425 14.2749 13.6871 15.5468 8.41989 15.5468C5.22743 15.5468 2.73047 15.1117 2.73047 15.1117V22.4015H10.8624C13.905 22.4015 16.402 20.8564 16.402 18.9358V1.65051H8.30997Z" fill="url(#paint3_linear_3504_674)"/>
<path d="M23.6185 1.65051C20.5758 1.65051 18.0789 3.19563 18.0789 5.11622V9.64932C19.4844 8.90689 21.9133 8.42857 25.8431 8.54784C27.9441 8.60748 30.196 8.96592 30.196 8.96592V10.4344C29.0637 10.0759 27.7263 9.75156 25.9939 9.67488C23.0057 9.53857 21.2178 10.4514 21.2178 12.0568C21.2178 13.6785 23.0193 14.592 25.9939 14.4386C27.7263 14.362 29.0637 14.0206 30.196 13.6792V15.1476C30.196 15.1476 27.9724 15.506 25.8431 15.5657C21.9133 15.6764 19.4844 15.2072 18.0789 14.4642V22.446H26.2108C29.2534 22.446 31.7504 20.9008 31.7504 18.9803V1.65051H23.6185Z" fill="url(#paint4_linear_3504_674)"/>
<defs>
<linearGradient id="paint0_linear_3504_674" x1="33.3895" y1="13.3626" x2="47.0694" y2="13.3626" gradientUnits="userSpaceOnUse">
<stop stop-color="#007940"/>
<stop offset="0.2285" stop-color="#00873F"/>
<stop offset="0.7433" stop-color="#40A737"/>
<stop offset="1" stop-color="#5CB531"/>
</linearGradient>
<linearGradient id="paint1_linear_3504_674" x1="33.3894" y1="12.0347" x2="47.0613" y2="12.0347" gradientUnits="userSpaceOnUse">
<stop stop-color="#007940"/>
<stop offset="0.2285" stop-color="#00873F"/>
<stop offset="0.7433" stop-color="#40A737"/>
<stop offset="1" stop-color="#5CB531"/>
</linearGradient>
<linearGradient id="paint2_linear_3504_674" x1="33.3898" y1="10.5795" x2="47.0695" y2="10.5795" gradientUnits="userSpaceOnUse">
<stop stop-color="#007940"/>
<stop offset="0.2285" stop-color="#00873F"/>
<stop offset="0.7433" stop-color="#40A737"/>
<stop offset="1" stop-color="#5CB531"/>
</linearGradient>
<linearGradient id="paint3_linear_3504_674" x1="2.76377" y1="12.0259" x2="16.6554" y2="12.0259" gradientUnits="userSpaceOnUse">
<stop stop-color="#1F286F"/>
<stop offset="0.4751" stop-color="#004E94"/>
<stop offset="0.8261" stop-color="#0066B1"/>
<stop offset="1" stop-color="#006FBC"/>
</linearGradient>
<linearGradient id="paint4_linear_3504_674" x1="18.0044" y1="12.048" x2="31.4964" y2="12.048" gradientUnits="userSpaceOnUse">
<stop stop-color="#6C2C2F"/>
<stop offset="0.1735" stop-color="#882730"/>
<stop offset="0.5731" stop-color="#BE1833"/>
<stop offset="0.8585" stop-color="#DC0436"/>
<stop offset="1" stop-color="#E60039"/>
</linearGradient>
</defs>
</svg>
