<svg width="50" height="27" viewBox="0 0 50 27" fill="none" xmlns="http://www.w3.org/2000/svg">
<path d="M31.7666 2.29822H18.2461V19.2119H31.7666V2.29822Z" fill="#6C6BBD"/>
<path d="M19.0957 10.7545C19.0957 7.32212 21.3975 4.27106 25 2.29797C22.3701 0.858427 19.0547 0 15.4521 0C6.91797 0 0 4.8148 0 10.7545C0 16.6941 6.91797 21.5089 15.4521 21.5089C19.0547 21.5089 22.3701 20.6512 25 19.211C21.4111 17.2379 19.0957 14.1868 19.0957 10.7545Z" fill="#D32011"/>
<path d="M50 10.7545C50 16.6941 43.082 21.5089 34.5479 21.5089C30.9453 21.5089 27.6299 20.6512 25 19.211C28.5889 17.2372 30.9043 14.1868 30.9043 10.7545C30.9043 7.32212 28.6025 4.27106 25 2.29797C27.6299 0.858427 30.9453 0 34.5479 0C43.082 0 50 4.8148 50 10.7545Z" fill="#0099DF"/>
<path d="M36.3291 23.9876C36.5068 23.9876 36.7676 24.0161 36.959 24.0637L36.6846 24.6455C36.4932 24.5884 36.3008 24.5694 36.123 24.5694C35.5342 24.5694 35.2461 24.8365 35.2461 25.3034V26.9054H34.3555V24.0549H35.2461V24.3981C35.4795 24.15 35.8223 23.9876 36.3291 23.9876ZM33.041 24.6265H31.5752V25.9138C31.5752 26.1999 31.7256 26.3902 32.1641 26.3902C32.3965 26.3902 32.6846 26.3331 32.959 26.2285L33.2197 26.7627C32.9316 26.8959 32.4941 26.9822 32.1104 26.9822C31.0557 26.9822 30.6855 26.5914 30.6855 25.924V24.6176H29.8496V24.0454H30.6855V23.1781H31.5898V24.0454H33.042L33.041 24.6265ZM21.6162 25.2368C21.7119 24.827 22.0684 24.5408 22.7119 24.5408C23.2871 24.5408 23.6572 24.7889 23.7529 25.2368H21.6162ZM24.6709 25.4842C24.6572 24.5973 23.876 23.9876 22.7256 23.9876C21.5205 23.9876 20.6846 24.5979 20.6846 25.4842C20.6846 26.3902 21.5615 26.9809 22.7939 26.9809C23.4102 26.9809 23.9717 26.8762 24.4785 26.5805L24.04 26.1231C23.6973 26.3141 23.2588 26.4188 22.8486 26.4188C22.2734 26.4188 21.7529 26.2373 21.6162 25.7228H24.6572C24.6572 25.6467 24.6709 25.5705 24.6709 25.4842ZM28.5889 24.7882C28.3428 24.6836 27.835 24.5402 27.3145 24.5402C26.8213 24.5402 26.5332 24.6639 26.5332 24.8739C26.5332 25.0649 26.8486 25.122 27.2314 25.1505L27.6563 25.1886C28.5469 25.2742 29.0947 25.5413 29.0947 26.0463C29.0947 26.5901 28.4102 26.9809 27.2178 26.9809C26.5469 26.9809 25.9297 26.8572 25.4365 26.6091L25.8613 26.1231C26.1631 26.2849 26.6152 26.4188 27.2314 26.4188C27.834 26.4188 28.1631 26.2951 28.1631 26.0755C28.1631 25.9138 27.9307 25.8275 27.4375 25.7799L27.0127 25.7418C26.0947 25.6562 25.6016 25.3605 25.6016 24.9031C25.6016 24.3308 26.2725 23.9876 27.3135 23.9876C27.9707 23.9876 28.5596 24.0923 28.9844 24.2832L28.5889 24.7882ZM39.6025 24.5789C39.4248 24.5789 39.2461 24.5979 39.0957 24.6455C38.9453 24.6931 38.8076 24.7502 38.6846 24.8365C38.5752 24.9126 38.4795 25.018 38.4102 25.1226C38.3418 25.2368 38.3145 25.3612 38.3145 25.4944C38.3145 25.6276 38.3418 25.752 38.4102 25.8662C38.4785 25.9804 38.5605 26.0762 38.6846 26.1523C38.7939 26.2285 38.9307 26.2951 39.0957 26.3433C39.2598 26.3909 39.4248 26.4099 39.6025 26.4099C39.7803 26.4099 39.959 26.3909 40.1094 26.3433C40.2734 26.2958 40.4111 26.2387 40.5205 26.1523C40.6436 26.0762 40.7256 25.9709 40.7949 25.8662C40.8633 25.752 40.8906 25.6276 40.8906 25.4944C40.8906 25.3612 40.8633 25.2368 40.7949 25.1226C40.7266 25.0085 40.6445 24.9126 40.5205 24.8365C40.4111 24.7604 40.2744 24.6938 40.1094 24.6455C39.9453 24.5979 39.7813 24.5789 39.6025 24.5789ZM39.6025 23.9876C39.918 23.9876 40.2188 24.0257 40.4932 24.1018C40.7676 24.1779 41 24.2832 41.1914 24.4165C41.3828 24.5497 41.5479 24.7121 41.6572 24.8929C41.7666 25.0744 41.8213 25.2742 41.8213 25.4937C41.8213 25.7133 41.7666 25.9131 41.6572 26.0946C41.5479 26.276 41.3965 26.4378 41.1914 26.571C41 26.7042 40.7529 26.8096 40.4932 26.8857C40.2188 26.9618 39.9316 26.9999 39.6025 26.9999C39.2871 26.9999 38.9863 26.9618 38.7119 26.8857C38.4375 26.8096 38.2051 26.7042 38.0137 26.571C37.8223 26.4378 37.6572 26.2754 37.5479 26.0946C37.4385 25.9138 37.3838 25.7133 37.3838 25.4937C37.3838 25.2742 37.4385 25.0744 37.5479 24.8929C37.6572 24.7114 37.8086 24.5497 38.0137 24.4165C38.2051 24.2832 38.4385 24.1779 38.7119 24.1018C38.9863 24.0257 39.2744 23.9876 39.6025 23.9876ZM16.3975 25.4842C16.3975 24.9792 16.8633 24.5687 17.6436 24.5687C18.3828 24.5687 18.876 24.9595 18.876 25.4842C18.876 26.0089 18.3828 26.3997 17.6436 26.3997C16.8633 26.3997 16.3975 25.9899 16.3975 25.4842ZM19.7119 25.4842V24.0542H18.8213V24.3974C18.5332 24.1398 18.1094 23.9781 17.5195 23.9781C16.3691 23.9781 15.4648 24.6075 15.4648 25.4747C15.4648 26.342 16.3691 26.9714 17.5195 26.9714C18.1084 26.9714 18.5332 26.8096 18.8213 26.552V26.8952H19.7119V25.4842ZM14.6846 26.9149V25.1226C14.6846 24.4457 14.0684 23.9978 13.0684 23.9883C12.5479 23.9788 12 24.0929 11.6299 24.4933C11.3418 24.1786 10.9043 23.9883 10.2734 23.9883C9.83496 23.9883 9.41016 24.0739 9.06836 24.4076V24.0549H8.17773V26.9054H9.08203V25.3225C9.08203 24.827 9.47949 24.5599 10.082 24.5599C10.6709 24.5599 10.9727 24.827 10.9727 25.313V26.9054H11.877V25.3225C11.877 24.827 12.2881 24.5599 12.877 24.5599C13.4932 24.5599 13.7812 24.827 13.7812 25.313V26.9054H14.6855V26.9149H14.6846Z" fill="#110F0D"/>
</svg>
