<svg width="50" height="19" viewBox="0 0 50 19" fill="none" xmlns="http://www.w3.org/2000/svg">
<path d="M9.79179 0.69165H22.2716C24.0136 0.69165 25.0971 1.50884 24.6908 2.51475L18.8805 16.8713C18.4705 17.8737 16.7263 18.6916 14.983 18.6916H2.50443C0.764799 18.6916 -0.321141 17.8737 0.0852499 16.8713L5.89792 2.51475C6.30431 1.50884 8.04759 0.69165 9.79179 0.69165Z" fill="#E21836"/>
<path d="M21.2331 0.691406H35.5846C37.3263 0.691406 36.5409 1.5086 36.1312 2.51451L30.3219 16.871C29.9143 17.8734 30.0414 18.6913 28.296 18.6913H13.9446C12.1992 18.6913 11.119 17.8734 11.529 16.871L17.3381 2.51451C17.7505 1.5086 19.4902 0.691406 21.2331 0.691406Z" fill="#00447C"/>
<path d="M35.0153 0.691406H47.4951C49.2396 0.691406 50.3231 1.5086 49.9133 2.51451L44.104 16.871C43.694 17.8734 41.9486 18.6913 40.2044 18.6913H27.7303C25.9849 18.6913 24.9023 17.8734 25.3112 16.871L31.1214 2.51451C31.5278 1.5086 33.2699 0.691406 35.0153 0.691406Z" fill="#007B84"/>
<path d="M13.051 5.29219C11.7677 5.29972 11.3887 5.29219 11.2676 5.27574C11.2211 5.40301 10.355 7.70211 10.3526 7.70403C10.1662 8.16917 10.0305 8.50074 9.56964 8.71484C9.30805 8.83931 9.00264 8.89936 8.64857 8.89936C8.07944 8.89936 7.74788 8.73673 7.69222 8.42827L7.68157 8.32235C7.68157 8.32235 7.85495 7.6993 7.85495 7.6958C7.85495 7.6958 8.76386 5.60065 8.9266 5.32371C8.93511 5.30795 8.93755 5.29972 8.93968 5.29219C7.17054 5.30112 6.85692 5.29219 6.83533 5.27574C6.82346 5.29832 6.77966 5.42822 6.77966 5.42822L5.85159 7.78964L5.7719 7.98991L5.61768 8.64499C5.61768 8.83931 5.68399 8.99792 5.816 9.13202C6.23882 9.55724 7.44491 9.62097 8.1272 9.62097C9.00629 9.62097 9.83094 9.51348 10.3882 9.31723C11.3555 8.98829 11.6086 8.47413 11.8343 8.01722L11.9389 7.78281C11.9389 7.78281 12.8752 5.60678 13.0343 5.32371C13.0404 5.30795 13.0428 5.29972 13.051 5.29219ZM16.2367 7.04762C16.011 7.04762 15.5985 7.07913 15.228 7.18364C15.0935 7.22338 14.9664 7.26925 14.8323 7.31494L14.9533 7.06337L14.887 7.02101C14.1013 7.11256 13.9255 7.12482 13.1997 7.18364L13.1389 7.20692C13.0546 7.60904 12.9798 7.91138 12.6674 8.70178C12.5484 8.99309 12.4249 9.28719 12.3011 9.5778L12.3346 9.61473C13.0783 9.59215 13.304 9.59215 13.9504 9.59828L14.0027 9.56554C14.0849 9.32343 14.0955 9.26671 14.2774 8.77636C14.3629 8.54388 14.5411 8.03304 14.6291 7.85115C14.7906 7.80809 14.95 7.76572 15.1021 7.76572C15.4644 7.76572 15.4202 7.94761 15.4063 8.02009C15.3907 8.14176 15.2587 8.53915 15.1234 8.88035L15.033 9.10058C14.9701 9.26321 14.901 9.42129 14.838 9.58252L14.8654 9.61473C15.5985 9.59215 15.8221 9.59215 16.4481 9.59828L16.5217 9.56554C16.6349 9.18741 16.668 9.08622 16.8688 8.53565L16.9698 8.28268C17.166 7.78761 17.2645 7.53657 17.1161 7.33209C16.9591 7.10294 16.5825 7.04762 16.2367 7.04762ZM19.7954 7.56596C19.4057 7.60903 19.1572 7.63774 18.9102 7.65629C18.6653 7.67887 18.4266 7.69936 18.05 7.72947L18.0202 7.74505L17.9928 7.75748C17.9536 7.91889 17.9262 8.05841 17.8742 8.22244C17.8301 8.39208 17.7622 8.58482 17.6518 8.86177C17.5663 9.07377 17.5222 9.14765 17.4736 9.22223C17.4261 9.2968 17.3738 9.36928 17.2777 9.57778L17.3002 9.59704L17.319 9.61472C17.671 9.60509 17.9012 9.59826 18.1379 9.59704C18.3742 9.59213 18.6191 9.59704 18.9981 9.59826L19.0313 9.58268L19.0669 9.56552C19.1216 9.37751 19.1298 9.32691 19.1633 9.23518C19.1965 9.1368 19.2536 9.0006 19.3939 8.63682C19.4602 8.46596 19.5341 8.29562 19.6028 8.12126C19.6743 7.9476 19.7492 7.77656 19.8203 7.6057L19.8097 7.58504L19.7954 7.56596ZM19.8037 6.86707C19.4496 6.74681 18.8282 6.78497 18.4099 6.9511C17.9929 7.11391 17.9454 7.345 18.2983 7.46684C18.6463 7.58378 19.2702 7.54894 19.6848 7.38141C20.1009 7.2151 20.1529 6.98612 19.8037 6.86707ZM21.945 9.65241C22.6614 9.65241 23.3957 9.53879 23.9484 9.20162C24.3736 8.92817 24.5686 8.52133 24.6361 8.35379C24.8561 7.79849 24.6848 7.53923 24.4697 7.38132C24.143 7.14061 23.5657 7.06341 22.9668 7.06341C22.6066 7.06341 21.7488 7.08389 21.0787 7.43944C20.5975 7.69591 20.3751 8.04393 20.241 8.3776C20.1056 8.71757 19.9499 9.32959 20.9278 9.55735C21.2296 9.63193 21.6645 9.65241 21.945 9.65241ZM21.889 8.40299C22.0542 7.98249 22.2492 7.62956 22.7468 7.62956C23.1368 7.62956 23.1651 7.89215 22.9917 8.31405C22.9607 8.40771 22.8183 8.75591 22.6258 8.90419C22.4913 9.0136 22.3322 9.07995 22.1564 9.07995C22.1041 9.07995 21.7929 9.07995 21.788 8.81403C21.7856 8.68274 21.8322 8.54864 21.889 8.40299ZM26.4269 9.59833L26.4828 9.56559C26.5622 9.32348 26.5753 9.26659 26.7511 8.77641C26.839 8.54393 27.0209 8.0331 27.1064 7.85121C27.2682 7.80797 27.4249 7.7656 27.5819 7.7656C27.9417 7.7656 27.8979 7.94749 27.8836 8.01997C27.8705 8.14181 27.7385 8.53903 27.6007 8.88022L27.5152 9.10045C27.4498 9.26326 27.3787 9.42117 27.3157 9.58258L27.3431 9.61479C28.0786 9.5922 28.2936 9.5922 28.9233 9.59833L28.9994 9.56559C29.1098 9.18728 29.1396 9.0861 29.3464 8.5357L29.445 8.28256C29.6421 7.78748 29.7419 7.53662 29.5959 7.33215C29.4343 7.10299 29.0553 7.04767 28.7143 7.04767C28.4883 7.04767 28.0737 7.07901 27.7054 7.18369C27.5736 7.22343 27.4416 7.26912 27.312 7.31499L27.4249 7.06343L27.3644 7.02088C26.579 7.11262 26.3995 7.12487 25.6746 7.18369L25.619 7.20698C25.531 7.6091 25.4596 7.91125 25.1472 8.70184C25.0282 8.99314 24.9047 9.28725 24.7812 9.57785L24.8144 9.61479C25.5593 9.5922 25.7817 9.5922 26.4269 9.59833ZM31.8309 9.6147C31.8771 9.4848 32.1518 8.71488 32.1542 8.71488C32.1542 8.71488 32.3881 8.14995 32.4024 8.12947C32.4024 8.12947 32.476 8.07065 32.5497 8.04736H32.6579C33.6797 8.04736 34.8335 8.04736 35.7378 7.6645C36.3532 7.40191 36.7739 7.01414 36.9615 6.54288C37.0102 6.42734 37.0461 6.28991 37.0461 6.15249C37.0461 5.972 36.9831 5.79343 36.8012 5.65391C36.3401 5.2826 35.4218 5.27577 34.3617 5.27297C34.3583 5.27297 33.8391 5.27577 33.8391 5.27577C32.4821 5.2854 31.9379 5.2826 31.7144 5.26685C31.6955 5.32374 31.6599 5.42493 31.6599 5.42493C31.6599 5.42493 31.1738 6.72144 31.1738 6.72354C31.1738 6.72354 30.0106 9.48008 29.9559 9.60997C31.1407 9.60174 31.6264 9.60174 31.8309 9.6147ZM32.7316 7.31158C32.7316 7.31158 33.2484 6.01769 33.2459 6.02259L33.2627 5.95624L33.27 5.90565L33.4765 5.9179C33.4765 5.9179 34.5424 5.9706 34.5673 5.972C34.988 6.06566 35.1614 6.30707 35.0403 6.62218C34.9299 6.91016 34.6053 7.15227 34.1883 7.26921C33.8449 7.3683 33.4242 7.37652 32.9907 7.37652H32.7103L32.7316 7.31158ZM35.9493 8.42695C35.8128 8.76202 35.6558 9.37404 36.6289 9.59217C36.9392 9.66815 37.2172 9.69073 37.4998 9.6825C37.7982 9.67322 38.0747 9.58709 38.3308 9.46315C38.3077 9.51409 38.2846 9.56503 38.2614 9.61615L38.3056 9.64889C39.0055 9.63191 39.2227 9.63191 39.981 9.63523L40.0498 9.60512C40.1605 9.23049 40.2648 8.86671 40.5526 8.15C40.6928 7.80671 40.8327 7.46673 40.9766 7.12484L40.9541 7.0872C40.1711 7.1707 39.9618 7.18856 39.2087 7.25001L39.1515 7.27679C39.1439 7.31163 39.136 7.34507 39.1287 7.3785C39.0116 7.26961 38.8418 7.17666 38.5799 7.11871C38.245 7.04291 37.4584 7.14059 36.7822 7.49492C36.3071 7.74788 36.0789 8.09451 35.9493 8.42695ZM37.5938 8.44744C37.7614 8.03446 37.9539 7.68504 38.4528 7.68504C38.7682 7.68504 38.9343 7.85257 38.9005 8.13827C38.8738 8.20952 38.8449 8.28463 38.8105 8.36953C38.7606 8.49225 38.7065 8.61392 38.6538 8.73576C38.6003 8.81909 38.538 8.8977 38.4695 8.95004C38.3411 9.05473 38.0357 9.11968 37.8599 9.11968C37.81 9.11968 37.5022 9.11968 37.4916 8.85848C37.4891 8.72841 37.5357 8.59449 37.5938 8.44744ZM46.1811 7.08385L46.1205 7.04412C45.3458 7.13445 45.2055 7.1488 44.4937 7.20412L44.4414 7.23423C44.439 7.23914 44.4369 7.24666 44.4332 7.25349L44.4308 7.24666C43.9009 7.95024 43.9164 7.79846 43.4851 8.35236C43.4826 8.32715 43.4826 8.31139 43.4802 8.28461L43.3722 7.08385L43.3044 7.04412C42.4928 7.13445 42.4736 7.1488 41.7241 7.20412L41.6657 7.23423C41.6575 7.24859 41.6575 7.26434 41.6527 7.2815L41.6575 7.28763C41.7512 7.56318 41.7287 7.50173 41.8227 7.93658C41.8665 8.14999 41.9249 8.36461 41.9687 8.57539C42.0426 8.92814 42.084 9.1018 42.1743 9.64012C41.6682 10.1208 41.5483 10.3027 41.061 10.7246L41.0644 10.7288L40.7212 11.0411C40.682 11.0741 40.6464 11.0966 40.5965 11.1063C40.5418 11.1218 40.4706 11.1246 40.3717 11.1246H40.1816L39.899 11.6656L40.8685 11.6752C41.4376 11.6738 41.7953 11.5206 41.9879 11.3148L42.5975 10.7136H42.5877L42.6519 10.6712C43.0619 10.1632 46.1811 7.08385 46.1811 7.08385ZM35.9493 14.1883H35.5381L37.0602 11.2909H37.5651L37.7254 10.9924L37.741 11.3243C37.7221 11.5295 38.0026 11.7114 38.7393 11.6813H39.5913L39.8845 11.1233H39.5639C39.3796 11.1233 39.2941 11.0966 39.3048 11.0391L39.2893 10.7014H37.7115V10.7032C37.2013 10.7093 35.678 10.7314 35.3695 10.7786C34.9963 10.834 34.603 10.9968 34.603 10.9968L34.7575 10.6979H33.2816L32.9741 11.2909L31.4316 14.2326H31.1322L30.8387 14.7865H33.7783L33.6798 14.9712H35.1283L35.2244 14.7865H35.6308L35.9493 14.1883ZM34.7432 11.8796C34.5069 11.9172 34.067 12.0314 34.067 12.0314L34.4582 11.2909H35.6308L35.3479 11.8304C35.3479 11.8304 34.9857 11.8427 34.7432 11.8796ZM34.7657 12.9375C34.7657 12.9375 34.3974 12.9641 34.1549 12.9956C33.9161 13.0373 33.4684 13.1686 33.4684 13.1686L33.8723 12.398H35.0511L34.7657 12.9375ZM34.1087 14.1952H32.9324L33.2734 13.5448H34.446L34.1087 14.1952ZM36.9414 12.398H38.637L38.3933 12.8521H36.6753L36.4173 13.3486H37.9206L36.7824 14.271C36.7027 14.3387 36.6312 14.3627 36.5518 14.3818C36.4721 14.4051 36.3674 14.4324 36.2464 14.4324H35.8293L35.5428 14.9761H36.6336C37.2006 14.9761 37.5355 14.8277 37.7828 14.6328L38.5634 14.018L38.731 14.6423C38.7665 14.7592 38.9126 14.8277 39.0114 14.8543C39.1206 14.8858 39.2335 14.9399 39.3929 14.9479C39.5638 14.9521 39.6873 14.9555 39.7694 14.9555H40.3054L40.6272 14.3469H40.4158C40.2945 14.3469 40.0855 14.3352 40.0499 14.3133C40.0143 14.2867 40.0143 14.2458 39.9952 14.1834L39.8251 13.5578H39.1288L39.4342 13.3486H41.1489L41.4127 12.8521H39.8251L40.0724 12.398H41.6551L41.9486 11.8379H37.2301L36.9414 12.398ZM22.621 14.3216L23.0167 13.5639H24.6432L24.9404 13.0004H23.3124L23.5609 12.534H25.1518L25.4465 11.9884H21.466L21.1773 12.534H22.0816L21.8404 13.0004H20.9337L20.6331 13.5736H21.5372L21.0097 14.576C20.9385 14.7087 21.0432 14.7593 21.1095 14.8209C21.1773 14.8809 21.2461 14.9207 21.4006 14.9433C21.56 14.9637 21.6692 14.976 21.8176 14.976H23.6512L23.9779 14.3517L23.1652 14.416C23.0082 14.416 22.5735 14.4051 22.621 14.3216ZM22.8075 10.6945L22.3954 11.1232C22.3071 11.2169 22.2277 11.275 22.1563 11.3018C22.0933 11.3244 21.9686 11.3338 21.7879 11.3338H21.5728L21.2854 11.8823H21.9996C22.343 11.8823 22.6068 11.8098 22.7327 11.7736C22.8681 11.7319 22.9036 11.7557 23.0083 11.6976L23.2495 11.5774H25.4798L25.7758 11.0063H24.1432L24.4282 10.6945H22.8075ZM26.1001 14.3326C26.0621 14.3011 26.0895 14.2456 26.1476 14.1301L26.7572 12.9689H28.9257C29.2418 12.9663 29.4699 12.9642 29.6183 12.958C29.7777 12.9484 29.9511 12.9157 30.14 12.8568C30.335 12.7952 30.4348 12.7303 30.519 12.6557C30.613 12.5813 30.7639 12.4185 30.8935 12.1674L31.6597 10.698L29.4094 10.7055C29.4094 10.7055 28.7164 10.7643 28.4113 10.8293C28.1035 10.9017 27.6637 11.1041 27.6637 11.1041L27.8668 10.7013H26.4767L24.5305 14.4159C24.4615 14.5602 24.4153 14.6649 24.4046 14.7277C24.401 14.7955 24.5531 14.8625 24.6516 14.9131C24.7681 14.9637 24.9403 14.9555 25.1055 14.9637C25.2791 14.9712 25.5261 14.976 25.8671 14.976H26.9354L27.2633 14.3387L26.307 14.3907C26.2048 14.3907 26.1309 14.3592 26.1001 14.3326ZM27.1505 12.1846H29.4282L29.2834 12.4458C29.2631 12.4519 29.2144 12.4328 28.9826 12.4486H27.0103L27.1505 12.1846ZM27.6068 11.3086H29.9037L29.7385 11.6232C29.7385 11.6232 28.6559 11.617 28.4825 11.6354C27.7196 11.7114 27.274 11.946 27.274 11.946L27.6068 11.3086ZM29.3344 13.3205C29.3156 13.3595 29.2857 13.3833 29.2441 13.4012C29.1978 13.4183 29.123 13.4244 29.0114 13.4244H28.6868L28.706 13.1064H27.356L27.3012 14.6614C27.2991 14.7737 27.318 14.8386 27.4606 14.8906C27.6033 14.9555 28.0428 14.9638 28.6345 14.9638H29.4804L29.7858 14.3817L29.0494 14.405L28.8045 14.4132C28.7711 14.405 28.7391 14.3974 28.7035 14.377C28.6725 14.3593 28.6202 14.3701 28.6287 14.2579L28.6345 13.8593L29.4068 13.8409C29.8238 13.8409 30.0021 13.7628 30.1542 13.6884C30.2993 13.6172 30.3467 13.5353 30.4015 13.4244L30.5311 13.0715H29.4698L29.3344 13.3205Z" fill="#FEFEFE"/>
</svg>
